# xmcd CD database file
#
# Track frame offsets:
#	150
#	20707
#	38430
#	56367
#	80635
#	106462
#	142530
#
# Disc length: 2451 seconds
#
# Revision: 1
# Processed by: cddbd v1.5.2PL0 Copyright (c) Steve Scherf et al.
# Submitted via: CDex 1.51
#
DISCID=4c099107
DTITLE=Young Sounds - Little Sunflower
DYEAR=1991
DGENRE=Jazz
TTITLE0=Swung Out to Dry
TTITLE1=Polka Dots and Moonbeams
TTITLE2=Snooze You Lose Blues
TTITLE3=No Peppers, No Tomatoes
TTITLE4=Nightshades
TTITLE5=Little Sunflower
TTITLE6=Samba Dees Godda Do It
EXTD=YEAR: 1991
EXTT0=
EXTT1=
EXTT2=
EXTT3=
EXTT4=
EXTT5=
EXTT6=
PLAYORDER=
